<svg id="79b8c7d3-ac73-4d64-a210-808c202f09d2" data-name="V REg" xmlns="http://www.w3.org/2000/svg" viewBox="0 0 309.27 53.88"><title>Institutional Repository-VU-logo</title><path d="M17.42,61.38l-4-12.08h.9l2.24,7.06q.35,1.1.63,2t.65,2h.07q.18-.55.34-1l.3-1,.3-1,.32-1,2.24-7.06h.86l-4,12.08Z" transform="translate(-13.42 -11.51)" fill="#fff"/><path d="M25.23,61.6a3.24,3.24,0,0,1-1-.15,2.35,2.35,0,0,1-.81-.44,2,2,0,0,1-.55-.75,2.66,2.66,0,0,1-.2-1.08A2.41,2.41,0,0,1,24,57a12.12,12.12,0,0,1,4.32-1.09,7,7,0,0,0-.07-1A2.39,2.39,0,0,0,28,54a1.9,1.9,0,0,0-.64-.64,2,2,0,0,0-1.06-.25,3.71,3.71,0,0,0-1.61.35,7.71,7.71,0,0,0-1.19.68l-.37-.6.58-.37a5.26,5.26,0,0,1,.76-.37,7.06,7.06,0,0,1,.92-.28,4.39,4.39,0,0,1,1-.12,2.9,2.9,0,0,1,1.3.27,2.32,2.32,0,0,1,.86.72A3,3,0,0,1,29,54.42a5.73,5.73,0,0,1,.15,1.33v5.63h-.7l-.07-1.14h-.06a9.78,9.78,0,0,1-1.46.94A3.5,3.5,0,0,1,25.23,61.6Zm.15-.7a3.11,3.11,0,0,0,1.47-.37,8.68,8.68,0,0,0,1.52-1.06v-3a18.7,18.7,0,0,0-2.29.4,6,6,0,0,0-1.5.57,2.19,2.19,0,0,0-.82.75,1.81,1.81,0,0,0-.25.94,2,2,0,0,0,.15.81,1.45,1.45,0,0,0,.4.54,1.68,1.68,0,0,0,.6.31A2.53,2.53,0,0,0,25.38,60.9Z" transform="translate(-13.42 -11.51)" fill="#fff"/><path d="M31.85,61.38v-8.8h.7l.07,1.36h.06a8,8,0,0,1,1.39-1.13,3,3,0,0,1,1.63-.45,2.4,2.4,0,0,1,2,.83,4.13,4.13,0,0,1,.64,2.55v5.64h-.81V55.84a3.68,3.68,0,0,0-.47-2.08,1.76,1.76,0,0,0-1.55-.67,2.59,2.59,0,0,0-1.43.41,8.74,8.74,0,0,0-1.45,1.24v6.63Z" transform="translate(-13.42 -11.51)" fill="#fff"/><path d="M44.07,61.6a3.29,3.29,0,0,1-2.66-1.18,5.19,5.19,0,0,1-1-3.42,5.62,5.62,0,0,1,.31-1.92,4.43,4.43,0,0,1,.85-1.47,3.73,3.73,0,0,1,1.25-.92,3.57,3.57,0,0,1,1.49-.32,3.23,3.23,0,0,1,1.4.28,7,7,0,0,1,1.26.8l0-1.61V48.2h.81V61.38h-.7L47,60.24h-.05a5.9,5.9,0,0,1-1.26.94A3.19,3.19,0,0,1,44.07,61.6Zm.11-.71a2.83,2.83,0,0,0,1.4-.37,6.45,6.45,0,0,0,1.37-1.07V54.21a4.81,4.81,0,0,0-1.31-.88,3.24,3.24,0,0,0-1.26-.26,2.57,2.57,0,0,0-1.23.3,3.09,3.09,0,0,0-1,.82,4,4,0,0,0-.65,1.25A4.92,4.92,0,0,0,41.28,57a6.13,6.13,0,0,0,.19,1.59A3.67,3.67,0,0,0,42,59.81a2.55,2.55,0,0,0,2.15,1.07Z" transform="translate(-13.42 -11.51)" fill="#fff"/><path d="M54,61.6a4.05,4.05,0,0,1-1.59-.31,3.66,3.66,0,0,1-1.29-.91,4.37,4.37,0,0,1-.87-1.45A5.45,5.45,0,0,1,49.93,57a5.52,5.52,0,0,1,.32-1.94,4.44,4.44,0,0,1,.86-1.46,3.84,3.84,0,0,1,1.23-.92,3.33,3.33,0,0,1,1.42-.32,3.07,3.07,0,0,1,2.48,1.06,4.52,4.52,0,0,1,.9,3v.33a1.52,1.52,0,0,1,0,.33H50.76A5.1,5.1,0,0,0,51,58.62a3.63,3.63,0,0,0,.67,1.21,3,3,0,0,0,1,.79,3.15,3.15,0,0,0,1.36.28,3.75,3.75,0,0,0,1.29-.21,4.18,4.18,0,0,0,1.07-.58l.33.62a10.92,10.92,0,0,1-1.16.59A4.06,4.06,0,0,1,54,61.6Zm-3.25-5.17h5.61a3.9,3.9,0,0,0-.7-2.54,2.33,2.33,0,0,0-1.89-.83,2.63,2.63,0,0,0-1.08.23,2.87,2.87,0,0,0-.93.67A3.6,3.6,0,0,0,51.1,55,4.67,4.67,0,0,0,50.76,56.43Z" transform="translate(-13.42 -11.51)" fill="#fff"/><path d="M59.07,61.38v-8.8h.7l.07,1.63h.06A4.29,4.29,0,0,1,61,52.88a2.2,2.2,0,0,1,1.42-.51,2.58,2.58,0,0,1,.46,0,1.58,1.58,0,0,1,.42.15l-.18.73a1.85,1.85,0,0,0-.39-.12,2.75,2.75,0,0,0-.42,0,2.05,2.05,0,0,0-1.24.5,4.2,4.2,0,0,0-1.17,1.75v6Z" transform="translate(-13.42 -11.51)" fill="#fff"/><path d="M67.87,61.6a3.3,3.3,0,0,1-1.33-.3,5.62,5.62,0,0,1-1.31-.82h0l-.09.9h-.68V48.2h.81V52l0,1.72a8.08,8.08,0,0,1,1.45-1,3.4,3.4,0,0,1,1.6-.4,3,3,0,0,1,2.64,1.22,5.48,5.48,0,0,1,.88,3.27,6,6,0,0,1-.31,2,4.5,4.5,0,0,1-.85,1.49,3.68,3.68,0,0,1-1.25.93A3.53,3.53,0,0,1,67.87,61.6Zm0-.71a2.64,2.64,0,0,0,1.23-.29,2.85,2.85,0,0,0,1-.82,4.1,4.1,0,0,0,.63-1.27,5.55,5.55,0,0,0,.23-1.64,6.9,6.9,0,0,0-.16-1.5,3.61,3.61,0,0,0-.49-1.2,2.32,2.32,0,0,0-.86-.79,2.69,2.69,0,0,0-1.28-.28,3,3,0,0,0-1.38.38,7.77,7.77,0,0,0-1.5,1.07v5.22a4.92,4.92,0,0,0,1.41.88A3.44,3.44,0,0,0,67.84,60.88Z" transform="translate(-13.42 -11.51)" fill="#fff"/><path d="M74.33,50.46a.73.73,0,0,1-.52-.2.68.68,0,0,1-.21-.51.69.69,0,0,1,.21-.54.81.81,0,0,1,1,0,.69.69,0,0,1,.21.54.68.68,0,0,1-.21.51A.73.73,0,0,1,74.33,50.46Zm-.42,10.92v-8.8h.81v8.8Z" transform="translate(-13.42 -11.51)" fill="#fff"/><path d="M78.73,61.6q-1.08,0-1.08-1.39v-12h.81V60.32a.69.69,0,0,0,.11.43.34.34,0,0,0,.27.14H79l.21,0,.15.66-.26.06A1.61,1.61,0,0,1,78.73,61.6Z" transform="translate(-13.42 -11.51)" fill="#fff"/><path d="M83.94,61.6a2.55,2.55,0,0,1-1.06-.19,1.7,1.7,0,0,1-.68-.54,2.11,2.11,0,0,1-.36-.84,5.43,5.43,0,0,1-.1-1.08V53.28H80.36v-.62l1.39-.07L81.87,50h.7v2.55h2.55v.7H82.56V59a4.09,4.09,0,0,0,.06.76,1.56,1.56,0,0,0,.23.59,1.11,1.11,0,0,0,.45.39,1.73,1.73,0,0,0,.74.14,2.15,2.15,0,0,0,.56-.08,3.45,3.45,0,0,0,.54-.19l.22.66a6,6,0,0,1-.77.24A2.9,2.9,0,0,1,83.94,61.6Z" transform="translate(-13.42 -11.51)" fill="#fff"/><path d="M94.12,61.6a5,5,0,0,1-1.5-.23,3.21,3.21,0,0,1-1.3-.79,3.94,3.94,0,0,1-.91-1.49,7,7,0,0,1-.34-2.35V49.3h.84v7.35a6.43,6.43,0,0,0,.27,2,3.56,3.56,0,0,0,.71,1.28,2.45,2.45,0,0,0,1,.69,3.69,3.69,0,0,0,1.22.2,3.91,3.91,0,0,0,1.26-.2,2.5,2.5,0,0,0,1-.69,3.58,3.58,0,0,0,.72-1.28,6.23,6.23,0,0,0,.28-2V49.3h.79v7.44a6.77,6.77,0,0,1-.35,2.35,4,4,0,0,1-.92,1.49,3.21,3.21,0,0,1-1.3.79A5.09,5.09,0,0,1,94.12,61.6Z" transform="translate(-13.42 -11.51)" fill="#fff"/><path d="M101.18,61.38v-8.8h.7l.07,1.36H102a8,8,0,0,1,1.39-1.13,3,3,0,0,1,1.63-.45,2.4,2.4,0,0,1,2,.83,4.13,4.13,0,0,1,.64,2.55v5.64h-.81V55.84a3.68,3.68,0,0,0-.47-2.08,1.76,1.76,0,0,0-1.55-.67,2.59,2.59,0,0,0-1.43.41A8.74,8.74,0,0,0,102,54.74v6.63Z" transform="translate(-13.42 -11.51)" fill="#fff"/><path d="M110.9,50.46a.73.73,0,0,1-.52-.2.68.68,0,0,1-.21-.51.69.69,0,0,1,.21-.54.81.81,0,0,1,1,0,.69.69,0,0,1,.21.54.68.68,0,0,1-.21.51A.73.73,0,0,1,110.9,50.46Zm-.42,10.92v-8.8h.81v8.8Z" transform="translate(-13.42 -11.51)" fill="#fff"/><path d="M116.05,61.38l-3.3-8.8h.88l2,5.52q.2.64.44,1.28t.44,1.25h.07l.45-1.25.45-1.28,2-5.52h.83L117,61.38Z" transform="translate(-13.42 -11.51)" fill="#fff"/><path d="M125.06,61.6a4.05,4.05,0,0,1-1.59-.31,3.66,3.66,0,0,1-1.29-.91,4.37,4.37,0,0,1-.87-1.45A5.45,5.45,0,0,1,121,57a5.52,5.52,0,0,1,.32-1.94,4.44,4.44,0,0,1,.86-1.46,3.84,3.84,0,0,1,1.23-.92,3.33,3.33,0,0,1,1.42-.32,3.07,3.07,0,0,1,2.48,1.06,4.52,4.52,0,0,1,.9,3v.33a1.52,1.52,0,0,1,0,.33h-6.35a5.1,5.1,0,0,0,.26,1.53,3.63,3.63,0,0,0,.67,1.21,3,3,0,0,0,1,.79,3.15,3.15,0,0,0,1.36.28,3.75,3.75,0,0,0,1.29-.21,4.18,4.18,0,0,0,1.07-.58l.33.62a10.92,10.92,0,0,1-1.16.59A4.06,4.06,0,0,1,125.06,61.6Zm-3.25-5.17h5.61a3.9,3.9,0,0,0-.7-2.54,2.33,2.33,0,0,0-1.89-.83,2.63,2.63,0,0,0-1.08.23,2.87,2.87,0,0,0-.93.67,3.6,3.6,0,0,0-.68,1.06A4.67,4.67,0,0,0,121.81,56.43Z" transform="translate(-13.42 -11.51)" fill="#fff"/><path d="M130.12,61.38v-8.8h.7l.07,1.63h.06A4.29,4.29,0,0,1,132,52.88a2.2,2.2,0,0,1,1.42-.51,2.58,2.58,0,0,1,.46,0,1.58,1.58,0,0,1,.42.15l-.18.73a1.85,1.85,0,0,0-.39-.12,2.75,2.75,0,0,0-.42,0,2.05,2.05,0,0,0-1.24.5,4.2,4.2,0,0,0-1.17,1.75v6Z" transform="translate(-13.42 -11.51)" fill="#fff"/><path d="M137.6,61.6a4.52,4.52,0,0,1-1.82-.36,5.69,5.69,0,0,1-1.41-.85l.48-.61a6.13,6.13,0,0,0,1.21.8,3.55,3.55,0,0,0,1.6.32,2.13,2.13,0,0,0,1.57-.52,1.67,1.67,0,0,0,.52-1.22,1.33,1.33,0,0,0-.19-.71,1.82,1.82,0,0,0-.5-.53,4,4,0,0,0-.69-.38l-.76-.31-1-.38a4.38,4.38,0,0,1-.91-.49,2.35,2.35,0,0,1-.65-.68,1.77,1.77,0,0,1-.25-1,2.29,2.29,0,0,1,.18-.91,2.06,2.06,0,0,1,.55-.75,2.68,2.68,0,0,1,.89-.5,3.69,3.69,0,0,1,1.22-.18,3.79,3.79,0,0,1,1.37.26,3.94,3.94,0,0,1,1.15.66l-.44.57a5.16,5.16,0,0,0-.94-.56,2.78,2.78,0,0,0-1.17-.23,2.51,2.51,0,0,0-.88.14,1.94,1.94,0,0,0-.61.36,1.37,1.37,0,0,0-.37.51,1.55,1.55,0,0,0-.12.59,1.16,1.16,0,0,0,.17.65,1.7,1.7,0,0,0,.47.47,3.69,3.69,0,0,0,.67.36l.76.3,1,.4a4.33,4.33,0,0,1,.93.5,2.37,2.37,0,0,1,.67.72,2.07,2.07,0,0,1,.26,1.07,2.37,2.37,0,0,1-.19.94,2.19,2.19,0,0,1-.58.79,2.91,2.91,0,0,1-.94.54A3.69,3.69,0,0,1,137.6,61.6Z" transform="translate(-13.42 -11.51)" fill="#fff"/><path d="M142.87,50.46a.73.73,0,0,1-.52-.2.68.68,0,0,1-.21-.51.69.69,0,0,1,.21-.54.81.81,0,0,1,1,0,.69.69,0,0,1,.21.54.68.68,0,0,1-.21.51A.73.73,0,0,1,142.87,50.46Zm-.42,10.92v-8.8h.81v8.8Z" transform="translate(-13.42 -11.51)" fill="#fff"/><path d="M148.59,61.6a2.55,2.55,0,0,1-1.06-.19,1.7,1.7,0,0,1-.68-.54,2.11,2.11,0,0,1-.36-.84,5.43,5.43,0,0,1-.1-1.08V53.28H145v-.62l1.39-.07.11-2.55h.7v2.55h2.55v.7h-2.55V59a4.09,4.09,0,0,0,.06.76,1.56,1.56,0,0,0,.23.59,1.11,1.11,0,0,0,.45.39,1.73,1.73,0,0,0,.74.14,2.15,2.15,0,0,0,.56-.08,3.45,3.45,0,0,0,.54-.19l.22.66a6,6,0,0,1-.77.24A2.9,2.9,0,0,1,148.59,61.6Z" transform="translate(-13.42 -11.51)" fill="#fff"/><path d="M151.1,65.39a2.15,2.15,0,0,1-.9-.18l.18-.71.33.1a1.55,1.55,0,0,0,.39,0,1.72,1.72,0,0,0,1.38-.66,5,5,0,0,0,.88-1.67l.24-.77-3.61-9h.88L153,58.12l.45,1.21q.25.66.5,1.25H154q.2-.59.41-1.25l.39-1.21,1.89-5.54h.83l-3.48,9.9a8.25,8.25,0,0,1-.45,1.08,4.29,4.29,0,0,1-.62.93,2.91,2.91,0,0,1-.83.65A2.22,2.22,0,0,1,151.1,65.39Z" transform="translate(-13.42 -11.51)" fill="#fff"/><path d="M162.29,61.38V49.3h.84V61.38Z" transform="translate(-13.42 -11.51)" fill="#fff"/><path d="M166.14,61.38v-8.8h.7l.07,1.36H167a8,8,0,0,1,1.39-1.13,3,3,0,0,1,1.63-.45,2.4,2.4,0,0,1,2,.83,4.13,4.13,0,0,1,.64,2.55v5.64h-.81V55.84a3.68,3.68,0,0,0-.47-2.08,1.76,1.76,0,0,0-1.55-.67,2.59,2.59,0,0,0-1.43.41,8.74,8.74,0,0,0-1.45,1.24v6.63Z" transform="translate(-13.42 -11.51)" fill="#fff"/><path d="M177.57,61.6a4.52,4.52,0,0,1-1.82-.36,5.69,5.69,0,0,1-1.41-.85l.48-.61a6.13,6.13,0,0,0,1.21.8,3.55,3.55,0,0,0,1.6.32,2.13,2.13,0,0,0,1.57-.52,1.67,1.67,0,0,0,.52-1.22,1.33,1.33,0,0,0-.19-.71,1.82,1.82,0,0,0-.5-.53,4,4,0,0,0-.69-.38l-.76-.31-1-.38a4.38,4.38,0,0,1-.91-.49,2.35,2.35,0,0,1-.65-.68,1.77,1.77,0,0,1-.25-1,2.29,2.29,0,0,1,.18-.91,2.06,2.06,0,0,1,.55-.75,2.68,2.68,0,0,1,.89-.5,3.69,3.69,0,0,1,1.22-.18,3.79,3.79,0,0,1,1.37.26,3.94,3.94,0,0,1,1.15.66l-.44.57a5.16,5.16,0,0,0-.94-.56,2.78,2.78,0,0,0-1.17-.23,2.51,2.51,0,0,0-.88.14,1.94,1.94,0,0,0-.61.36,1.37,1.37,0,0,0-.37.51,1.55,1.55,0,0,0-.12.59,1.16,1.16,0,0,0,.17.65,1.7,1.7,0,0,0,.47.47,3.69,3.69,0,0,0,.67.36l.76.3,1,.4a4.33,4.33,0,0,1,.93.5,2.37,2.37,0,0,1,.67.72,2.07,2.07,0,0,1,.26,1.07,2.37,2.37,0,0,1-.19.94,2.19,2.19,0,0,1-.58.79,2.91,2.91,0,0,1-.94.54A3.69,3.69,0,0,1,177.57,61.6Z" transform="translate(-13.42 -11.51)" fill="#fff"/><path d="M184.44,61.6a2.55,2.55,0,0,1-1.06-.19,1.7,1.7,0,0,1-.68-.54,2.11,2.11,0,0,1-.36-.84,5.43,5.43,0,0,1-.1-1.08V53.28h-1.38v-.62l1.39-.07.11-2.55h.7v2.55h2.55v.7h-2.55V59a4.09,4.09,0,0,0,.06.76,1.56,1.56,0,0,0,.23.59,1.11,1.11,0,0,0,.45.39,1.73,1.73,0,0,0,.74.14,2.15,2.15,0,0,0,.56-.08,3.45,3.45,0,0,0,.54-.19l.22.66a6,6,0,0,1-.77.24A2.9,2.9,0,0,1,184.44,61.6Z" transform="translate(-13.42 -11.51)" fill="#fff"/><path d="M187.73,50.46a.73.73,0,0,1-.52-.2.68.68,0,0,1-.21-.51.69.69,0,0,1,.21-.54.81.81,0,0,1,1,0,.69.69,0,0,1,.21.54.68.68,0,0,1-.21.51A.73.73,0,0,1,187.73,50.46Zm-.42,10.92v-8.8h.81v8.8Z" transform="translate(-13.42 -11.51)" fill="#fff"/><path d="M193.45,61.6a2.55,2.55,0,0,1-1.06-.19,1.7,1.7,0,0,1-.68-.54,2.11,2.11,0,0,1-.36-.84,5.43,5.43,0,0,1-.1-1.08V53.28h-1.38v-.62l1.39-.07.11-2.55h.7v2.55h2.55v.7h-2.55V59a4.09,4.09,0,0,0,.06.76,1.56,1.56,0,0,0,.23.59,1.11,1.11,0,0,0,.45.39,1.73,1.73,0,0,0,.74.14,2.15,2.15,0,0,0,.56-.08,3.45,3.45,0,0,0,.54-.19l.22.66a6,6,0,0,1-.77.24A2.9,2.9,0,0,1,193.45,61.6Z" transform="translate(-13.42 -11.51)" fill="#fff"/><path d="M198.84,61.6a2.4,2.4,0,0,1-2-.82,4.14,4.14,0,0,1-.64-2.55V52.58H197v5.54a3.68,3.68,0,0,0,.47,2.08,1.74,1.74,0,0,0,1.53.67,2.51,2.51,0,0,0,1.43-.43,7,7,0,0,0,1.41-1.37V52.58h.81v8.8H202l-.09-1.47h0a6,6,0,0,1-1.36,1.23A3,3,0,0,1,198.84,61.6Z" transform="translate(-13.42 -11.51)" fill="#fff"/><path d="M208,61.6a2.55,2.55,0,0,1-1.06-.19,1.7,1.7,0,0,1-.68-.54,2.11,2.11,0,0,1-.36-.84,5.43,5.43,0,0,1-.1-1.08V53.28h-1.38v-.62l1.39-.07.11-2.55h.7v2.55h2.55v.7h-2.55V59a4.09,4.09,0,0,0,.06.76,1.56,1.56,0,0,0,.23.59,1.11,1.11,0,0,0,.45.39,1.73,1.73,0,0,0,.74.14,2.15,2.15,0,0,0,.56-.08,3.45,3.45,0,0,0,.54-.19l.22.66a6,6,0,0,1-.77.24A2.9,2.9,0,0,1,208,61.6Z" transform="translate(-13.42 -11.51)" fill="#fff"/><path d="M211.24,50.46a.73.73,0,0,1-.52-.2.68.68,0,0,1-.21-.51.69.69,0,0,1,.21-.54.81.81,0,0,1,1,0,.69.69,0,0,1,.21.54.68.68,0,0,1-.21.51A.73.73,0,0,1,211.24,50.46Zm-.42,10.92v-8.8h.81v8.8Z" transform="translate(-13.42 -11.51)" fill="#fff"/><path d="M217.77,61.6A3.73,3.73,0,0,1,215,60.39a4.36,4.36,0,0,1-.86-1.44,5.51,5.51,0,0,1-.32-2,5.65,5.65,0,0,1,.32-2,4.31,4.31,0,0,1,.86-1.46,3.72,3.72,0,0,1,2.76-1.21,3.81,3.81,0,0,1,1.51.31,3.69,3.69,0,0,1,1.27.9,4.33,4.33,0,0,1,.86,1.46,5.67,5.67,0,0,1,.32,2,5.52,5.52,0,0,1-.32,2,4.38,4.38,0,0,1-.86,1.44,3.68,3.68,0,0,1-1.27.9A3.79,3.79,0,0,1,217.77,61.6Zm0-.71A2.75,2.75,0,0,0,219,60.6a2.89,2.89,0,0,0,1-.8,3.91,3.91,0,0,0,.65-1.23,5,5,0,0,0,.24-1.58,5,5,0,0,0-.24-1.59,4,4,0,0,0-.65-1.24,2.86,2.86,0,0,0-1-.81,2.76,2.76,0,0,0-1.24-.28,2.71,2.71,0,0,0-1.23.28,2.88,2.88,0,0,0-1,.81,4,4,0,0,0-.65,1.24,5,5,0,0,0-.24,1.59,5,5,0,0,0,.24,1.58,3.91,3.91,0,0,0,.65,1.23,2.91,2.91,0,0,0,1,.8A2.7,2.7,0,0,0,217.77,60.88Z" transform="translate(-13.42 -11.51)" fill="#fff"/><path d="M223.91,61.38v-8.8h.7l.07,1.36h.06a8,8,0,0,1,1.39-1.13,3,3,0,0,1,1.63-.45,2.4,2.4,0,0,1,2,.83,4.13,4.13,0,0,1,.64,2.55v5.64h-.81V55.84a3.68,3.68,0,0,0-.47-2.08,1.76,1.76,0,0,0-1.55-.67,2.59,2.59,0,0,0-1.43.41,8.74,8.74,0,0,0-1.45,1.24v6.63Z" transform="translate(-13.42 -11.51)" fill="#fff"/><path d="M235.14,61.6a3.24,3.24,0,0,1-1-.15,2.35,2.35,0,0,1-.81-.44,2,2,0,0,1-.55-.75,2.66,2.66,0,0,1-.2-1.08A2.41,2.41,0,0,1,234,57a12.12,12.12,0,0,1,4.32-1.09,7,7,0,0,0-.07-1,2.39,2.39,0,0,0-.31-.9,1.9,1.9,0,0,0-.64-.64,2,2,0,0,0-1.06-.25,3.71,3.71,0,0,0-1.61.35,7.71,7.71,0,0,0-1.19.68l-.37-.6.58-.37a5.26,5.26,0,0,1,.76-.37,7.06,7.06,0,0,1,.92-.28,4.39,4.39,0,0,1,1-.12,2.9,2.9,0,0,1,1.3.27,2.32,2.32,0,0,1,.86.72,3,3,0,0,1,.48,1.07,5.73,5.73,0,0,1,.15,1.33v5.63h-.7l-.07-1.14h-.06a9.78,9.78,0,0,1-1.46.94A3.5,3.5,0,0,1,235.14,61.6Zm.15-.7a3.11,3.11,0,0,0,1.47-.37,8.68,8.68,0,0,0,1.52-1.06v-3a18.7,18.7,0,0,0-2.29.4,6,6,0,0,0-1.5.57,2.19,2.19,0,0,0-.82.75,1.81,1.81,0,0,0-.25.94,2,2,0,0,0,.15.81,1.45,1.45,0,0,0,.4.54,1.68,1.68,0,0,0,.6.31A2.53,2.53,0,0,0,235.28,60.9Z" transform="translate(-13.42 -11.51)" fill="#fff"/><path d="M242.84,61.6q-1.08,0-1.08-1.39v-12h.81V60.32a.69.69,0,0,0,.11.43.34.34,0,0,0,.27.14h.12l.21,0,.15.66-.26.06A1.61,1.61,0,0,1,242.84,61.6Z" transform="translate(-13.42 -11.51)" fill="#fff"/><path d="M248.95,61.38V49.3h3.47a7.07,7.07,0,0,1,1.63.17,3.34,3.34,0,0,1,1.25.56,2.6,2.6,0,0,1,.8,1,3.43,3.43,0,0,1,.28,1.47,3,3,0,0,1-.83,2.27,3.8,3.8,0,0,1-2.27,1l3.34,5.61h-1l-3.28-5.55h-2.57v5.55Zm.84-6.25h2.4a4,4,0,0,0,2.47-.65,2.34,2.34,0,0,0,.85-2,2.11,2.11,0,0,0-.86-1.92,4.52,4.52,0,0,0-2.46-.56h-2.4Z" transform="translate(-13.42 -11.51)" fill="#fff"/><path d="M261.53,61.6a4.05,4.05,0,0,1-1.59-.31,3.66,3.66,0,0,1-1.29-.91,4.37,4.37,0,0,1-.87-1.45,5.45,5.45,0,0,1-.32-1.93,5.52,5.52,0,0,1,.32-1.94,4.44,4.44,0,0,1,.86-1.46,3.84,3.84,0,0,1,1.23-.92,3.33,3.33,0,0,1,1.42-.32,3.07,3.07,0,0,1,2.48,1.06,4.52,4.52,0,0,1,.9,3v.33a1.52,1.52,0,0,1,0,.33h-6.35a5.1,5.1,0,0,0,.26,1.53,3.63,3.63,0,0,0,.67,1.21,3,3,0,0,0,1,.79,3.15,3.15,0,0,0,1.36.28,3.75,3.75,0,0,0,1.29-.21,4.18,4.18,0,0,0,1.07-.58l.33.62a10.92,10.92,0,0,1-1.16.59A4.06,4.06,0,0,1,261.53,61.6Zm-3.25-5.17h5.61a3.9,3.9,0,0,0-.7-2.54,2.33,2.33,0,0,0-1.89-.83,2.63,2.63,0,0,0-1.08.23,2.87,2.87,0,0,0-.93.67,3.6,3.6,0,0,0-.68,1.06A4.67,4.67,0,0,0,258.28,56.43Z" transform="translate(-13.42 -11.51)" fill="#fff"/><path d="M266.59,65.35V52.58h.7l.07,1.1h.06a8.94,8.94,0,0,1,1.4-.92,3.35,3.35,0,0,1,1.59-.4A3,3,0,0,1,273,53.58a5.48,5.48,0,0,1,.88,3.27,6,6,0,0,1-.31,2,4.5,4.5,0,0,1-.85,1.49,3.68,3.68,0,0,1-1.25.93,3.53,3.53,0,0,1-1.48.32,3.24,3.24,0,0,1-1.28-.28,6.91,6.91,0,0,1-1.36-.8v4.84ZM270,60.88a2.64,2.64,0,0,0,1.23-.29,2.85,2.85,0,0,0,1-.82,4.1,4.1,0,0,0,.63-1.27,5.55,5.55,0,0,0,.23-1.64,6.9,6.9,0,0,0-.16-1.5,3.61,3.61,0,0,0-.49-1.2,2.32,2.32,0,0,0-.86-.79,2.69,2.69,0,0,0-1.28-.28,2.9,2.9,0,0,0-1.37.38,8.39,8.39,0,0,0-1.51,1.07v5.22a5.55,5.55,0,0,0,1.43.88A3.3,3.3,0,0,0,270,60.88Z" transform="translate(-13.42 -11.51)" fill="#fff"/><path d="M279.32,61.6a3.73,3.73,0,0,1-2.76-1.21A4.36,4.36,0,0,1,275.7,59a5.51,5.51,0,0,1-.32-2,5.65,5.65,0,0,1,.32-2,4.31,4.31,0,0,1,.86-1.46,3.72,3.72,0,0,1,2.76-1.21,3.81,3.81,0,0,1,1.51.31,3.69,3.69,0,0,1,1.27.9A4.33,4.33,0,0,1,283,55a5.67,5.67,0,0,1,.32,2,5.52,5.52,0,0,1-.32,2,4.38,4.38,0,0,1-.86,1.44,3.68,3.68,0,0,1-1.27.9A3.79,3.79,0,0,1,279.32,61.6Zm0-.71a2.75,2.75,0,0,0,1.24-.28,2.89,2.89,0,0,0,1-.8,3.91,3.91,0,0,0,.65-1.23,5,5,0,0,0,.24-1.58,5,5,0,0,0-.24-1.59,4,4,0,0,0-.65-1.24,2.86,2.86,0,0,0-1-.81,2.76,2.76,0,0,0-1.24-.28,2.71,2.71,0,0,0-1.23.28,2.88,2.88,0,0,0-1,.81,4,4,0,0,0-.65,1.24,5,5,0,0,0-.24,1.59,5,5,0,0,0,.24,1.58,3.91,3.91,0,0,0,.65,1.23,2.91,2.91,0,0,0,1,.8A2.7,2.7,0,0,0,279.32,60.88Z" transform="translate(-13.42 -11.51)" fill="#fff"/><path d="M287.59,61.6a4.52,4.52,0,0,1-1.82-.36,5.69,5.69,0,0,1-1.41-.85l.48-.61a6.13,6.13,0,0,0,1.21.8,3.55,3.55,0,0,0,1.6.32,2.13,2.13,0,0,0,1.57-.52,1.67,1.67,0,0,0,.52-1.22,1.33,1.33,0,0,0-.19-.71,1.82,1.82,0,0,0-.5-.53,4,4,0,0,0-.69-.38l-.76-.31-1-.38a4.38,4.38,0,0,1-.91-.49,2.35,2.35,0,0,1-.65-.68,1.77,1.77,0,0,1-.25-1,2.29,2.29,0,0,1,.18-.91,2.06,2.06,0,0,1,.55-.75,2.68,2.68,0,0,1,.89-.5,3.69,3.69,0,0,1,1.22-.18,3.79,3.79,0,0,1,1.37.26,3.94,3.94,0,0,1,1.15.66l-.44.57a5.16,5.16,0,0,0-.94-.56,2.78,2.78,0,0,0-1.17-.23,2.51,2.51,0,0,0-.88.14,1.94,1.94,0,0,0-.61.36,1.37,1.37,0,0,0-.37.51,1.55,1.55,0,0,0-.12.59,1.16,1.16,0,0,0,.17.65,1.7,1.7,0,0,0,.47.47,3.69,3.69,0,0,0,.67.36l.76.3,1,.4a4.33,4.33,0,0,1,.93.5,2.37,2.37,0,0,1,.67.72,2.07,2.07,0,0,1,.26,1.07,2.37,2.37,0,0,1-.19.94,2.19,2.19,0,0,1-.58.79,2.91,2.91,0,0,1-.94.54A3.69,3.69,0,0,1,287.59,61.6Z" transform="translate(-13.42 -11.51)" fill="#fff"/><path d="M292.85,50.46a.73.73,0,0,1-.52-.2.68.68,0,0,1-.21-.51.69.69,0,0,1,.21-.54.81.81,0,0,1,1,0,.69.69,0,0,1,.21.54.68.68,0,0,1-.21.51A.73.73,0,0,1,292.85,50.46Zm-.42,10.92v-8.8h.81v8.8Z" transform="translate(-13.42 -11.51)" fill="#fff"/><path d="M298.57,61.6a2.55,2.55,0,0,1-1.06-.19,1.7,1.7,0,0,1-.68-.54,2.11,2.11,0,0,1-.36-.84,5.43,5.43,0,0,1-.1-1.08V53.28H295v-.62l1.39-.07L296.5,50h.7v2.55h2.55v.7H297.2V59a4.09,4.09,0,0,0,.06.76,1.56,1.56,0,0,0,.23.59,1.11,1.11,0,0,0,.45.39,1.73,1.73,0,0,0,.74.14,2.15,2.15,0,0,0,.56-.08,3.45,3.45,0,0,0,.54-.19l.22.66a6,6,0,0,1-.77.24A2.9,2.9,0,0,1,298.57,61.6Z" transform="translate(-13.42 -11.51)" fill="#fff"/><path d="M304.44,61.6a3.73,3.73,0,0,1-2.76-1.21,4.36,4.36,0,0,1-.86-1.44,5.51,5.51,0,0,1-.32-2,5.65,5.65,0,0,1,.32-2,4.31,4.31,0,0,1,.86-1.46,3.72,3.72,0,0,1,2.76-1.21,3.81,3.81,0,0,1,1.51.31,3.69,3.69,0,0,1,1.27.9,4.36,4.36,0,0,1,.86,1.46,5.69,5.69,0,0,1,.32,2,5.54,5.54,0,0,1-.32,2,4.41,4.41,0,0,1-.86,1.44,3.69,3.69,0,0,1-1.27.9A3.79,3.79,0,0,1,304.44,61.6Zm0-.71a2.76,2.76,0,0,0,1.24-.28,2.89,2.89,0,0,0,1-.8,3.89,3.89,0,0,0,.65-1.23,4.92,4.92,0,0,0,.24-1.58,5,5,0,0,0-.24-1.59,4,4,0,0,0-.65-1.24,2.86,2.86,0,0,0-1-.81,2.77,2.77,0,0,0-1.24-.28,2.71,2.71,0,0,0-1.23.28,2.88,2.88,0,0,0-1,.81,4,4,0,0,0-.65,1.24,5,5,0,0,0-.24,1.59,5,5,0,0,0,.24,1.58,3.91,3.91,0,0,0,.65,1.23,2.9,2.9,0,0,0,1,.8A2.7,2.7,0,0,0,304.44,60.88Z" transform="translate(-13.42 -11.51)" fill="#fff"/><path d="M310.59,61.38v-8.8h.7l.07,1.63h.05a4.29,4.29,0,0,1,1.07-1.34,2.2,2.2,0,0,1,1.42-.51,2.59,2.59,0,0,1,.46,0,1.6,1.6,0,0,1,.42.15l-.18.73a1.84,1.84,0,0,0-.39-.12,2.73,2.73,0,0,0-.42,0,2.06,2.06,0,0,0-1.24.5,4.21,4.21,0,0,0-1.17,1.75v6Z" transform="translate(-13.42 -11.51)" fill="#fff"/><path d="M316.26,65.39a2.15,2.15,0,0,1-.9-.18l.18-.71.33.1a1.54,1.54,0,0,0,.38,0,1.72,1.72,0,0,0,1.38-.66,5,5,0,0,0,.88-1.67l.24-.77-3.61-9H316l2.13,5.54.45,1.21q.25.66.5,1.25h.07q.2-.59.41-1.25t.39-1.21l1.89-5.54h.83l-3.48,9.9a8.45,8.45,0,0,1-.45,1.08,4.31,4.31,0,0,1-.62.93,2.91,2.91,0,0,1-.83.65A2.22,2.22,0,0,1,316.26,65.39Z" transform="translate(-13.42 -11.51)" fill="#fff"/><path d="M156.76,34.83h23.32V11.51H156.76Zm22.67-22.67v22h-22v-22Z" transform="translate(-13.42 -11.51)" fill="#fff"/><path d="M169.55,15.06V16h.34a2.1,2.1,0,0,1,1.27.25c.39.41.08.78-.33,1.28-.11.13-.22.27-.33.42-.5.66-.52,1.18-.32,1.39a.35.35,0,0,0,.47,0l.09-.06A12.82,12.82,0,0,1,172,18.4a.57.57,0,0,1,.73.12c.23.28.24.88-.24,1.51a7,7,0,0,1-.49.58,8,8,0,0,0-.71.86c-.24.34-.29.76-.12.93s.36.07.66-.16.71-.33.89-.12a.57.57,0,0,1,.12.39,2.07,2.07,0,0,1-.65,1.31c-.74.8-1.34,1.47-1.34,2.18a1.42,1.42,0,0,0,.07.43c.09.29.31.91.35,1a.15.15,0,0,0,0,.06l0,.05h-.82l-.7-1.89c-.1-.24-.21-.43-.86-.63l-.29-.09h0a.2.2,0,0,0-.2,0l-.43.31h0c-.42.31-.62.39-.81.35a.32.32,0,0,1-.24-.34v-.07h0a4.09,4.09,0,0,0,.61-2h0l0,0h0A.32.32,0,0,1,168,23c.18.06.3.25.48.73l.13.35,0,.13a.22.22,0,0,0,.18.16l.42.13.08,0,0,0a.35.35,0,0,1,0-.08l-.14-.39-.24-.66A2.49,2.49,0,0,0,168,22a7.26,7.26,0,0,0-1.08-.58c-.23-.11-.46-.21-.63-.31a1.67,1.67,0,0,1-1-1.29.76.76,0,0,1,0-.2.6.6,0,0,1,.64-.43,6,6,0,0,1,1.44.44c.23.09.41.07.48-.06s-.11-.83-.76-1.3c-.93-.68-1.37-1.16-1.42-1.54a.56.56,0,0,1,.13-.44c.19-.24.69-.24,1.13-.24h.34s0-.91,0-.95h-8.68v.48s0,.44,0,.47l.6,0h0c.75.07,1.33.42,1.94,2,.14.38,5,12.85,5.19,13.24h4.17S175.36,18.8,175.7,18c.59-1.5,1.23-1.85,2-1.92l.51,0v-1h-8.66m-2.84,10.12-.47-.18c-.58-.22-.83-.36-.9-1,0-.15,0-.35,0-.36h0s.12-.18.21-.28c.39-.47.67-.47,1.29-.33l.5.11v0a3.79,3.79,0,0,1-.16,1,3.63,3.63,0,0,1-.43.94Z" transform="translate(-13.42 -11.51)" fill="#fff"/></svg>